<?xml version="1.0"?>
<svg xmlns="http://www.w3.org/2000/svg" id="icon" viewBox="0 0 128 128" width="512" height="512"><path d="M2.585,111.613,17.972,127c27.79-24.916,39.741-12.5,39.741-12.5l2.515-6.6c-9.9-13.988-33.005-8.173-33.005-8.173,7.387-12.731,4.4-29.862,4.4-29.862l-12.888.943C21.362,88.541,12.065,102.405,2.585,111.613Z" fill="#75c959"/><path d="M57.72,114.5S45.763,102.086,17.973,127L2.588,111.615q1.591-1.539,3.147-3.252l12.212,12.212c27.789-24.914,39.738-12.51,39.738-12.51l.859-2.244a19.836,19.836,0,0,1,1.683,2.069Z" fill="#65b54e"/><path d="M17.972,128a1,1,0,0,1-.707-.293L1.878,112.32a1,1,0,0,1,.011-1.424c8.684-8.435,18.484-22.212,15.857-39.944a1,1,0,0,1,.916-1.144l12.888-.943a1,1,0,0,1,1.059.826c.118.679,2.691,16.023-3.5,28.619,6.083-1.1,23.438-2.987,31.932,9.01a1,1,0,0,1,.118.934l-2.515,6.6a1,1,0,0,1-1.655.337c-.11-.111-11.732-11.315-38.353,12.553A1,1,0,0,1,17.972,128ZM4,111.618l14.007,14.008c23.241-20.513,35.591-15.289,39.257-12.77l1.831-4.809c-9.567-12.73-31.41-7.41-31.633-7.354a1,1,0,0,1-1.109-1.472c6.177-10.646,4.881-24.655,4.409-28.295l-10.9.8C22.024,89.288,12.659,102.977,4,111.618Z" fill="#2f3a5a"/><path d="M107.961,113.388a16.531,16.531,0,0,0,4.227-16.154,18.547,18.547,0,0,0,7.8-30.88,18.707,18.707,0,0,0-1.53-1.363c.028-.028.06-.051.088-.08a21.235,21.235,0,0,0-12.665-36.131A21.191,21.191,0,0,0,71.2,14.918,18.526,18.526,0,0,0,35.57,14,18.532,18.532,0,0,0,14.7,43.447,16.534,16.534,0,0,0,25.39,74.733c.177.194.34.4.527.583a16.53,16.53,0,0,0,17.094,3.925,16.488,16.488,0,0,0,13.974,19.01,16.54,16.54,0,1,0,28.484,15.957A16.535,16.535,0,0,0,107.961,113.388Z" fill="#65b54e"/><path d="M112.186,97.238a18.551,18.551,0,0,0,7.793-30.884,18.7,18.7,0,0,0-1.525-1.368c.026-.026.061-.044.088-.07a21.24,21.24,0,0,0-12.659-36.135,21.194,21.194,0,0,0-34.689-13.86A18.511,18.511,0,0,0,40.143,6.435a17.812,17.812,0,0,0-1.7,1.964A17.545,17.545,0,0,1,64,19.348a20.063,20.063,0,0,1,32.83,13.123,20.109,20.109,0,0,1,12,34.215c-.035.035-.061.044-.1.079a16.934,16.934,0,0,1,1.464,1.289,17.557,17.557,0,0,1-7.39,29.236,15.633,15.633,0,0,1-12.772,19.7,16.514,16.514,0,0,0,22.153-19.751Z" fill="#75c959"/><path d="M69.946,126.069A17.541,17.541,0,0,1,55.254,98.942,17.338,17.338,0,0,1,46.921,94.3,17.588,17.588,0,0,1,41.844,80.63,17.4,17.4,0,0,1,25.21,76.023c-.05-.05-.1-.1-.146-.151A17.54,17.54,0,0,1,7.985,46.563a17.3,17.3,0,0,1,5.083-3.526A19.533,19.533,0,0,1,34.957,12.7a19.538,19.538,0,0,1,32.12-6.978,19.477,19.477,0,0,1,4.659,7.5,22.191,22.191,0,0,1,35.031,14.662,21.978,21.978,0,0,1,12.481,6.266,22.277,22.277,0,0,1,.67,30.766c.271.241.526.482.771.728A19.548,19.548,0,0,1,113.383,97.9a17.577,17.577,0,0,1-4.715,16.2h0a17.608,17.608,0,0,1-22.778,1.726,17.493,17.493,0,0,1-15.943,10.248ZM43.011,78.241A1,1,0,0,1,44,79.4a15.594,15.594,0,0,0,4.337,13.483,15.4,15.4,0,0,0,8.791,4.378,1,1,0,0,1,.643,1.612A15.54,15.54,0,1,0,84.53,113.865a1,1,0,0,1,1.593-.414,15.529,15.529,0,0,0,25.1-15.949,1,1,0,0,1,.677-1.227,17.518,17.518,0,0,0,5.927-30.5,1,1,0,0,1-.082-1.487c.02-.02.084-.078.105-.1a20.27,20.27,0,0,0-.017-28.621,20.028,20.028,0,0,0-12.069-5.793,1,1,0,0,1-.884-.881A20.19,20.19,0,0,0,71.841,15.684a1,1,0,0,1-1.611-.517A17.526,17.526,0,0,0,36.524,14.3a1,1,0,0,1-1.331.628A17.532,17.532,0,0,0,15.451,42.784a1,1,0,0,1-.405,1.6A15.534,15.534,0,0,0,25.088,73.779a1,1,0,0,1,1.041.28l.2.226c.1.109.19.219.295.324A15.442,15.442,0,0,0,42.686,78.3.993.993,0,0,1,43.011,78.241Zm64.95,35.146h0Z" fill="#2f3a5a"/><path d="M100.788,58.065A12.9,12.9,0,0,0,84.427,41.7" fill="#65b54e"/><path d="M100.788,59.065a1.012,1.012,0,0,1-.321-.053,1,1,0,0,1-.626-1.268A11.9,11.9,0,0,0,84.748,42.65a1,1,0,0,1-.643-1.895,13.9,13.9,0,0,1,17.63,17.629A1,1,0,0,1,100.788,59.065Z" fill="#2f3a5a"/><path d="M61.189,35.277A10.973,10.973,0,0,0,47.268,21.356" fill="#65b54e"/><path d="M61.188,36.277a1,1,0,0,1-.947-1.322A9.972,9.972,0,0,0,47.59,22.3a1,1,0,1,1-.643-1.895A11.973,11.973,0,0,1,62.136,35.6,1,1,0,0,1,61.188,36.277Z" fill="#2f3a5a"/><path d="M97.755,92.708A10.973,10.973,0,0,0,87.64,75.818" fill="#65b54e"/><path d="M97.754,93.708a1,1,0,0,1-.84-1.542,9.973,9.973,0,0,0-9.192-15.352,1,1,0,1,1-.162-1.993A11.974,11.974,0,0,1,98.6,93.25,1,1,0,0,1,97.754,93.708Z" fill="#2f3a5a"/><path d="M40.818,64.355a10.973,10.973,0,0,0-17.439-9.136" fill="#65b54e"/><path d="M40.818,65.355h-.023a1,1,0,0,1-.977-1.023,9.973,9.973,0,0,0-15.851-8.3,1,1,0,1,1-1.178-1.616,11.974,11.974,0,0,1,19.028,9.968A1,1,0,0,1,40.818,65.355Z" fill="#2f3a5a"/><path d="M68.326,69.41a10.973,10.973,0,0,0-10.114-16.89" fill="#65b54e"/><path d="M68.325,70.41a1,1,0,0,1-.84-1.542,9.973,9.973,0,0,0-9.192-15.352,1,1,0,1,1-.162-1.993A11.973,11.973,0,0,1,69.167,69.952,1,1,0,0,1,68.325,70.41Z" fill="#2f3a5a"/><circle cx="78.383" cy="98.084" r="3.009" transform="translate(-46.398 84.153) rotate(-45)" fill="#75c959"/><circle cx="85.426" cy="61.321" r="3.009" transform="translate(-18.34 78.366) rotate(-45)" fill="#75c959"/><circle cx="54.364" cy="73.076" r="3.009" transform="translate(-35.75 59.845) rotate(-45)" fill="#75c959"/><circle cx="39.695" cy="34.649" r="3.009" transform="translate(-12.874 38.217) rotate(-45)" fill="#75c959"/></svg>
